<?xml version="1.0" encoding="UTF-8" standalone="no"?>
<svg
   xmlns:dc="http://purl.org/dc/elements/1.1/"
   xmlns:cc="http://creativecommons.org/ns#"
   xmlns:rdf="http://www.w3.org/1999/02/22-rdf-syntax-ns#"
   xmlns:svg="http://www.w3.org/2000/svg"
   xmlns="http://www.w3.org/2000/svg"
   xmlns:sodipodi="http://sodipodi.sourceforge.net/DTD/sodipodi-0.dtd"
   xmlns:inkscape="http://www.inkscape.org/namespaces/inkscape"
   version="1.1"
   width="128"
   height="128"
   id="svg2"
   inkscape:version="0.92.2 (5c3e80d, 2017-08-06)"
   sodipodi:docname="youtube.svg">
  <sodipodi:namedview
     pagecolor="#ffffff"
     bordercolor="#666666"
     borderopacity="1"
     objecttolerance="10"
     gridtolerance="10"
     guidetolerance="10"
     inkscape:pageopacity="0"
     inkscape:pageshadow="2"
     inkscape:window-width="1920"
     inkscape:window-height="1025"
     id="namedview14"
     showgrid="false"
     fit-margin-top="0"
     fit-margin-left="0"
     fit-margin-right="0"
     fit-margin-bottom="0"
     inkscape:zoom="2.7539063"
     inkscape:cx="-96.771627"
     inkscape:cy="63.999998"
     inkscape:window-x="0"
     inkscape:window-y="27"
     inkscape:window-maximized="1"
     inkscape:current-layer="g4153" />
  <defs
     id="defs4" />
  <metadata
     id="metadata7">
    <rdf:RDF>
      <cc:Work
         rdf:about="">
        <dc:format>image/svg+xml</dc:format>
        <dc:type
           rdf:resource="http://purl.org/dc/dcmitype/StillImage" />
        <dc:title />
      </cc:Work>
    </rdf:RDF>
  </metadata>
  <g
     id="layer9"
     style="display:inline"
     transform="translate(-714.31897,716.05807)" />
  <g
     id="layer10"
     style="display:inline"
     transform="translate(-714.31897,716.05807)" />
  <g
     id="layer11"
     transform="translate(-714.31897,716.05807)" />
  <g
     id="layer14"
     transform="translate(-714.31897,716.05807)" />
  <g
     id="layer15"
     style="display:inline"
     transform="translate(-714.31897,716.05807)" />
  <g
     id="g71291"
     style="display:inline"
     transform="translate(-714.31897,716.05807)" />
  <g
     id="g4953"
     style="display:inline"
     transform="translate(-714.31897,716.05807)" />
  <g
     id="layer12"
     style="display:inline"
     transform="translate(-714.31897,716.05807)" />
  <g
     transform="matrix(1.25,0,0,-1.25,-283.90817,218.91142)"
     inkscape:label="ink_ext_XXXXXX"
     id="g4153">
    <path
       inkscape:connector-curvature="0"
       style="fill:#444c5c;fill-opacity:1;stroke-width:0.4392361"
       d="m 278.32632,160.71143 c -20.31423,0 -36.78295,-16.46828 -36.78295,-36.78252 0,-20.31511 16.46872,-36.782069 36.78295,-36.782069 20.31643,0 36.78339,16.466959 36.78339,36.782069 0,20.31292 -16.46696,36.78076 -36.78383,36.78076 z m 16.86842,-53.05095 c -0.65885,-1.08052 -2.07319,-1.42312 -3.15371,-0.75987 -8.63626,5.27522 -19.50823,6.46994 -32.31197,3.54463 -1.23381,-0.28111 -2.46367,0.49195 -2.74478,1.7262 -0.28243,1.23425 0.48755,2.46411 1.72444,2.74522 14.01163,3.20248 26.03045,1.82283 35.72615,-4.10246 1.08052,-0.66325 1.42312,-2.0732 0.75987,-3.15372 z m 4.50217,10.01678 c -0.83015,-1.35065 -2.59588,-1.77671 -3.94434,-0.94655 -9.8872,6.07859 -24.95871,7.83861 -36.65337,4.2887 -1.51668,-0.45812 -3.11858,0.39663 -3.5789,1.91068 -0.4568,1.51668 0.39839,3.1155 1.91244,3.5767 13.35848,4.05327 29.96556,2.08989 41.31982,-4.88738 1.34845,-0.83016 1.77451,-2.59589 0.94435,-3.94259 z m 0.38653,10.42923 c -11.85498,7.0414 -31.41416,7.68883 -42.73284,4.25356 -1.81756,-0.55124 -3.73966,0.47482 -4.29046,2.29238 -0.5508,1.81844 0.47438,3.73922 2.29325,4.29178 12.99305,3.94434 34.59248,3.18226 48.24131,-4.92033 1.63835,-0.97027 2.17421,-3.08168 1.2035,-4.71432 -0.96632,-1.63484 -3.08344,-2.17378 -4.713,-1.20307 z"
       id="path2" />
  </g>
</svg>
